<?xml version="1.0" encoding="UTF-8" standalone="no"?>
<svg
   id="Ebene_1"
   data-name="Ebene 1"
   viewBox="0 0 260.85566 171.93223"
   version="1.1"
   width="260.85565"
   height="171.93224"
   xmlns="http://www.w3.org/2000/svg"
   xmlns:svg="http://www.w3.org/2000/svg">
  <defs
     id="defs60">
    <style
       id="style58">.cls-1{font-size:197.17px;fill:#928272;font-family:Roboto-Regular, Roboto;}.cls-2,.cls-7{fill:#faf1c6;}.cls-3,.cls-4,.cls-5{fill:#cc251d;}.cls-3{letter-spacing:-0.01em;}.cls-4{letter-spacing:-0.01em;}.cls-5{letter-spacing:-0.05em;}.cls-6{fill:#d79922;}.cls-7{letter-spacing:0em;}.cls-8{letter-spacing:0em;}</style>
  </defs>
  <title
     id="title62">icon_main</title>
  <g
     aria-label="{K}"
     transform="translate(-141.46076,140.77938)"
     id="text80"
     class="cls-1"
     style="font-size:197.17px;font-family:Roboto-Regular, Roboto;fill:#928272">
    <path
       d="M 204.55516,31.15286 Q 186.41552,30.95569 175.96551,23.26606 165.5155,15.57643 165.5155,-0.19717 v -28.98399 q 0,-10.05567 -6.30944,-14.19624 -6.11227,-4.33774 -17.7453,-4.33774 v -14.393409 q 11.63303,-0.19717 17.7453,-4.33774 6.30944,-4.14057 6.30944,-13.99907 v -29.181161 q 0,-15.7736 10.84435,-23.46323 10.84435,-7.68963 28.19531,-7.68963 v 14.19624 q -10.25284,0.19717 -16.16794,4.53491 -5.71793,4.33774 -5.71793,13.99907 v 28.392481 q 0,20.30851 -21.49153,24.05474 v 1.18302 q 21.49153,3.746229 21.49153,24.054739 v 28.98399 q 0,9.6613299 5.71793,13.8019 5.71793,4.33774 16.16794,4.53491 z"
       style="fill:#faf1c6"
       id="path1030" />
    <path
       d="m 332.91266,0 h -20.90002 l -49.88401,-67.234969 -14.39341,12.61888 V 0 h -17.7453 v -140.77938 h 17.7453 v 69.403841 q 5.9151,-6.70378 12.02737,-13.40756 6.11227,-6.70378 12.22454,-13.40756 l 38.05381,-42.588721 h 20.70285 l -55.79911,61.319871 z"
       style="fill:#cc251d"
       id="path1032" />
    <path
       d="m 339.22201,16.95662 q 10.25284,-0.39434 15.97077,-4.73208 5.9151,-4.1405701 5.9151,-13.8019 v -28.58965 q 0,-20.30851 21.49153,-24.054739 v -1.18302 q -21.49153,-3.74623 -21.49153,-24.05474 v -28.786821 q 0,-9.66133 -5.71793,-13.8019 -5.71793,-4.33774 -16.16794,-4.53491 v -14.19624 q 18.13964,0.19717 28.58965,7.8868 10.45001,7.68963 10.45001,23.46323 v 28.786821 q 0,10.05567 6.11227,14.39341 6.30944,4.14057 17.94247,4.14057 v 14.393409 q -11.63303,0.19717 -17.94247,4.33774 -6.11227,4.14057 -6.11227,13.99907 V 0 q 0,15.57643 -10.84435,23.26606 -10.84435,7.8868 -28.19531,7.8868 z"
       style="fill:#faf1c6"
       id="path1034" />
  </g>
</svg>
