<svg xmlns="http://www.w3.org/2000/svg" viewBox="0 0 535.37 120.82"><defs><style>.cls-1{fill:#cc241d;}.cls-2{fill:#d5c4a1;}.cls-3{fill:#d79921;}.cls-4{fill:#928374;}.cls-5{fill:#fbf1c7;}</style></defs><g id="Layer_2" data-name="Layer 2"><g id="Logo_Vector" data-name="Logo Vector"><path class="cls-1" d="M122.75,89.2l9.08-1.76V26.21l-9.08-1.76V14.14h34.86V24.45l-8.67,1.76V49h7.44l16.41-23.84-5-.71V14.14h33.81V24.45L192.3,26l-21,28,23.56,33.69,8.55,1.47V99.45H169.62V89.2l5.28-.7L158.49,63.83h-9.55V87.44l8.67,1.76V99.45H122.75Z"/><path class="cls-1" d="M237.77,100.68q-13.71,0-21.92-8.79t-8.2-22.32V67.23q0-14.13,7.76-23.27t20.83-9.08q12.84,0,19.92,7.74t7.09,20.92v9.31H225.4l-.11.35a16.51,16.51,0,0,0,4.19,10.32q3.72,4,10.1,4A33,33,0,0,0,249,86.42a44,44,0,0,0,8.2-3.61l4.63,10.55a33.6,33.6,0,0,1-10.17,5.21A43.17,43.17,0,0,1,237.77,100.68Zm-1.53-52.61a8.92,8.92,0,0,0-7.5,3.63,19,19,0,0,0-3.4,9.55l.18.29h21V60a13.73,13.73,0,0,0-2.55-8.7Q241.4,48.07,236.24,48.07Z"/><path class="cls-1" d="M297.47,46.37l-6,1.11,8.38,28.36,1.11,6h.35l1.23-6,8.26-28.3-6.09-1.17V36.05h28.77V46.37l-5.51.88-18.69,52.2H293l-18.75-52.2-5.51-.88V36.05h28.77Z"/><path class="cls-2" d="M350.09,99.45H333v-15h17Z"/><path class="cls-3" d="M359.23,89.2l8.26-1.76V48.12l-9.14-1.75V36.05H384.6V87.44l8.21,1.76V99.45H359.23ZM384.6,20.88H367.49V8.05H384.6Z"/><path class="cls-3" d="M397.49,89.2l8.21-1.76V48.12l-9.09-1.75V36.05h25l.77,9.09a23.11,23.11,0,0,1,7.79-7.56,20.18,20.18,0,0,1,10.37-2.7q9.62,0,15,6T461,59.84v27.6l8.2,1.76V99.45H436.46V89.2l7.32-1.76V59.9q0-6.37-2.58-9c-1.72-1.78-4.31-2.67-7.79-2.67a13.16,13.16,0,0,0-6.09,1.38,12.51,12.51,0,0,0-4.51,3.9v34l6.91,1.76V99.45H397.49Z"/><path class="cls-4" d="M0,59.77q0-23,8.91-39T29.06,0h.35l3.11,8.55Q24.84,14.3,19.63,27.07T14.41,59.65v1.52q0,19.86,5.22,32.61t12.89,18.66l-3.11,8.38h-.35q-11.25-4.74-20.15-20.74T0,61.05Z"/><path class="cls-4" d="M70.57,61.05q0,22.46-9.25,38.76t-20.63,21h-.35l-3.16-8.38Q44.74,106.7,50,93.87t5.27-32.7V59.65Q55.28,40,50,27T37.18,8.32L40.34,0h.35Q52.06,4.7,61.32,21t9.25,38.73Z"/><path class="cls-5" d="M107.81,115.55q-11.43-3.22-16.26-10.26T86.72,88.24V76.35q0-5.8-2.55-9c-1.7-2.14-4.33-3.22-7.88-3.22V52.32q5.33,0,7.88-3.19C85.87,47,86.72,44,86.72,40V28.12q0-10,4.83-17T107.81.88l3.28,9.2A11.62,11.62,0,0,0,104,16.55a29.11,29.11,0,0,0-2,11.57V40a21.75,21.75,0,0,1-2.64,10.81,17.89,17.89,0,0,1-7.91,7.35,18.71,18.71,0,0,1,7.91,7.47A21.54,21.54,0,0,1,102,76.35V88.24a29,29,0,0,0,2,11.57,11.61,11.61,0,0,0,7.06,6.48Z"/><path class="cls-5" d="M476.87,106.29a11.72,11.72,0,0,0,7-6.48,28.67,28.67,0,0,0,2.05-11.57V76.35a21.2,21.2,0,0,1,2.7-10.78,18.14,18.14,0,0,1,8.2-7.33,18.12,18.12,0,0,1-8.2-7.35A21.51,21.51,0,0,1,485.89,40V28.12a28.73,28.73,0,0,0-2.05-11.57,11.73,11.73,0,0,0-7-6.47l3.28-9.2Q491.52,4.1,496.38,11.1t4.86,17V40c0,3.95.84,7,2.52,9.11s4.3,3.19,7.85,3.19V64.1c-3.55,0-6.17,1.08-7.85,3.22s-2.52,5.16-2.52,9V88.24q0,10-4.86,17.05t-16.23,10.26Z"/><path class="cls-4" d="M534.73,92.17a28.24,28.24,0,0,1-3.37,12.65,35.89,35.89,0,0,1-8.23,11l-8.44-4.57a39.29,39.29,0,0,0,3.51-8.47A35.91,35.91,0,0,0,519.44,93V80.21h15.35Zm.64-46.06h-17v-15h17Z"/></g></g></svg>
